<?xml version="1.0" encoding="UTF-8" standalone="no"?><!DOCTYPE svg PUBLIC "-//W3C//DTD SVG 1.1//EN" "http://www.w3.org/Graphics/SVG/1.1/DTD/svg11.dtd"><svg width="100%" height="100%" viewBox="0 0 16 16" version="1.1" xmlns="http://www.w3.org/2000/svg" xmlns:xlink="http://www.w3.org/1999/xlink" xml:space="preserve" ><defs><style type="text/css"><![CDATA[ #iconpath{fill-rule:evenodd;clip-rule:evenodd;stroke-linejoin:round;stroke-miterlimit:1.41421;fill:#fff;} ]]></style>
</defs><path d="M2.417,11.908l0,0c0,0.617 -0.501,1.117 -1.117,1.117c-0.616,0 -1.116,-0.5 -1.116,-1.117l0,0l0,0c0,0 0,-3.048 0,-5.583c0,-1.85 1.499,-3.35 3.349,-3.35c0,0 0,0 0,0c0.827,0 1.621,0.305 2.234,0.853c0.592,-0.53 1.375,-0.853 2.233,-0.853c0,0 0,0 0,0c0.888,0 1.741,0.353 2.369,0.981c0.628,0.628 0.981,1.48 0.981,2.369l0,0.191c0.349,-0.124 0.725,-0.191 1.117,-0.191c1.848,0 3.349,1.501 3.349,3.35c0,1.849 -1.501,3.35 -3.349,3.35c-1.849,0 -3.35,-1.501 -3.35,-3.35c0,0 0,-3.35 0,-3.35c0,-0.296 -0.118,-0.58 -0.327,-0.79c-0.21,-0.209 -0.494,-0.327 -0.79,-0.327c0,0 0,0 0,0c-0.296,0 -0.58,0.118 -0.79,0.327c-0.209,0.21 -0.327,0.494 -0.327,0.79l0,2.233l0,0c0,0.616 -0.5,1.116 -1.116,1.116c-0.616,0 -1.116,-0.5 -1.117,-1.116l0,0l0,-0.001c0,0 0,-2.232 0,-2.232c0,-0.296 -0.118,-0.58 -0.327,-0.79c-0.209,-0.209 -0.493,-0.327 -0.79,-0.327c0,0 0,0 0,0c-0.296,0 -0.58,0.118 -0.789,0.327c-0.21,0.21 -0.327,0.494 -0.327,0.79l0,5.583l0,0Zm10.05,-3.35c0.616,0 1.116,0.501 1.116,1.117c0,0.616 -0.5,1.116 -1.116,1.116c-0.617,0 -1.117,-0.5 -1.117,-1.116c0,-0.616 0.5,-1.117 1.117,-1.117Z" id="iconpath"/></svg>